<?xml version="1.0" standalone="no"?><!DOCTYPE svg PUBLIC "-//W3C//DTD SVG 1.1//EN" "http://www.w3.org/Graphics/SVG/1.1/DTD/svg11.dtd"><svg t="1593781609140" class="icon" viewBox="0 0 1029 1024" version="1.1" xmlns="http://www.w3.org/2000/svg" p-id="2196" xmlns:xlink="http://www.w3.org/1999/xlink" width="200.9765625" height="200"><defs><style type="text/css"></style></defs><path d="M18.204444 300.373333h250.311112c5.688889 0 11.377778 5.688889 11.377777 11.377778v59.164445c0 5.688889-5.688889 11.377778-11.377777 11.377777H105.813333c-5.688889 0-11.377778 5.688889-11.377777 11.377778v52.337778c0 5.688889 5.688889 11.377778 11.377777 11.377778h152.462223c5.688889 0 11.377778 5.688889 11.377777 11.377777v59.164445c0 5.688889-5.688889 11.377778-11.377777 11.377778H105.813333c-5.688889 0-11.377778 5.688889-11.377777 11.377777v59.164445c0 5.688889 5.688889 11.377778 11.377777 11.377778h172.942223c5.688889 0 11.377778 5.688889 11.377777 11.377777v59.164445c0 5.688889-5.688889 11.377778-11.377777 11.377778H18.204444c-5.688889 0-11.377778-5.688889-11.377777-11.377778V311.751111c0-5.688889 5.688889-11.377778 11.377777-11.377778z m342.471112 11.377778c0-5.688889 5.688889-11.377778 11.377777-11.377778h144.497778c20.48 0 39.822222 1.137778 58.026667 5.688889 18.204444 4.551111 34.133333 10.24 48.924444 20.48s25.031111 21.617778 32.995556 37.546667 11.377778 36.408889 11.377778 59.164444c0 28.444444-6.826667 52.337778-21.617778 71.68-11.377778 15.928889-28.444444 27.306667-50.062222 34.133334-6.826667 1.137778-10.24 10.24-5.688889 15.928889l83.057777 139.946666c4.551111 6.826667-1.137778 17.066667-10.24 17.066667h-79.644444c-4.551111 0-9.102222-3.413333-10.24-5.688889l-77.368889-147.911111c-1.137778-4.551111-5.688889-5.688889-10.24-5.688889h-26.168889c-5.688889 0-11.377778 5.688889-11.377778 11.377778v138.808889c0 5.688889-5.688889 11.377778-11.377777 11.377777h-65.991111c-5.688889 0-11.377778-5.688889-11.377778-11.377777V311.751111h1.137778z m89.884444 144.497778c0 5.688889 5.688889 11.377778 11.377778 11.377778h39.822222c9.102222 0 15.928889 0 26.168889-1.137778 9.102222 0 17.066667-3.413333 25.031111-5.688889 6.826667-3.413333 12.515556-6.826667 17.066667-12.515556 4.551111-5.688889 6.826667-14.791111 6.826666-26.168888 0-10.24-1.137778-18.204444-5.688889-25.031112-4.551111-5.688889-10.24-10.24-15.928888-14.791111-5.688889-3.413333-14.791111-5.688889-21.617778-6.826666-9.102222-1.137778-15.928889-1.137778-25.031111-1.137778h-48.924445c-5.688889 0-11.377778 5.688889-11.377778 11.377778v70.542222h2.275556z m278.755556-144.497778c0-5.688889 5.688889-11.377778 11.377777-11.377778h136.533334c20.48 0 39.822222 1.137778 59.164444 5.688889 18.204444 4.551111 34.133333 10.24 48.924445 20.48 14.791111 9.102222 25.031111 21.617778 32.995555 37.546667 9.102222 15.928889 11.377778 36.408889 11.377778 59.164444s-4.551111 43.235556-11.377778 59.164445-17.066667 28.444444-31.857778 37.546666c-12.515556 10.24-28.444444 15.928889-47.786666 20.48-18.204444 4.551111-37.546667 5.688889-59.164445 5.688889h-53.475555c-5.688889 0-11.377778 5.688889-11.377778 11.377778v134.257778c0 5.688889-5.688889 11.377778-11.377778 11.377778h-65.991111c-5.688889 0-11.377778-5.688889-11.377778-11.377778V311.751111h3.413334z m87.608888 149.048889c0 5.688889 5.688889 11.377778 11.377778 11.377778H876.088889c9.102222 0 15.928889-1.137778 22.755555-3.413334s14.791111-4.551111 20.48-6.826666c5.688889-3.413333 10.24-9.102222 14.791112-14.791111 3.413333-5.688889 5.688889-14.791111 5.688888-22.755556 0-10.24-3.413333-18.204444-6.826666-25.031111s-10.24-11.377778-18.204445-14.791111c-6.826667-3.413333-15.928889-5.688889-25.031111-6.826667-9.102222-1.137778-17.066667-1.137778-26.168889-1.137778h-34.133333c-5.688889 0-11.377778 5.688889-11.377778 11.377778v72.817778z" fill="#1476CB" p-id="2197"></path><path d="M821.475556 212.764444c3.413333 3.413333 9.102222 0 9.102222-4.551111v-40.96c60.302222 0 108.088889 47.786667 108.088889 104.675556v19.342222c0 3.413333 2.275556 5.688889 5.688889 5.688889h62.577777c3.413333 0 5.688889-2.275556 5.688889-5.688889V273.066667c0-95.573333-81.92-174.08-180.906666-174.08H830.577778V51.2c0-4.551111-5.688889-7.964444-9.102222-4.551111l-92.16 79.644444c-2.275556 2.275556-2.275556 6.826667 0 9.102223l92.16 77.368888zM293.546667 892.017778l-87.608889-76.231111c-4.551111-4.551111-11.377778 0-11.377778 5.688889v37.546666c-60.302222 0-109.226667-47.786667-109.226667-106.951111v-17.066667c0-4.551111-3.413333-6.826667-6.826666-6.826666H18.204444c-3.413333 0-6.826667 3.413333-6.826666 6.826666v17.066667c0 96.711111 81.92 175.217778 183.182222 175.217778h1.137778v44.373333c0 5.688889 6.826667 10.24 11.377778 5.688889l87.608888-76.231111c1.137778-2.275556 1.137778-6.826667-1.137777-9.102222z" fill="#FFB561" p-id="2198"></path></svg>